<?xml version="1.0" encoding="utf-8"?>
<!-- Generator: Adobe Illustrator 16.2.0, SVG Export Plug-In . SVG Version: 6.00 Build 0)  -->
<!DOCTYPE svg PUBLIC "-//W3C//DTD SVG 1.1//EN" "http://www.w3.org/Graphics/SVG/1.1/DTD/svg11.dtd">
<svg version="1.1" id="Capa_1" xmlns="http://www.w3.org/2000/svg" xmlns:xlink="http://www.w3.org/1999/xlink" x="0px" y="0px"
	 width="612px" height="792px" viewBox="0 0 612 792" enable-background="new 0 0 612 792" xml:space="preserve">
<path d="M410.2,373.822v-1.606c44.302-13.238,79.03-55.841,79.03-118.049c0-80.567-66.207-126.245-137.967-126.245
	H103.54v547.222h226.729c138.291,0,192.536-86.349,192.536-166.003C522.805,423.071,475.891,387.395,410.2,373.822z
	 M231.391,225.255h28.739c20.857,0,53.331-2.395,71.099,7.964c16.983,10.36,26.244,29.504,26.244,49.447
	c0,18.358-7.699,38.289-22.381,49.468c-18.533,14.359-44.048,12.763-65.679,12.774h-38.022V225.255z M362.281,561.872
	c-19.329,13.573-47.919,11.965-70.336,11.965h-60.554V437.882h65.978c20.092,0,44.821,0,62.612,10.357
	c17.747,10.371,30.094,35.181,30.094,55.921C390.074,526.483,380.028,549.928,362.281,561.872z"/>
</svg>
